<svg xmlns="http://www.w3.org/2000/svg" width="35.346" height="40" viewBox="0 0 35.346 40">
  <g id="Bell_icon" data-name="Bell icon" transform="translate(-1.745)">
    <path id="XMLID_645_" d="M22.778,3.24a11.516,11.516,0,0,1,7.973,10.84c0,5.853,1.24,10.093,5.24,14.333,2.12,2.24,1,5.36-1.867,5.36H4.712c-2.867,0-3.987-3.12-1.867-5.36,3.987-4.24,5.24-8.48,5.24-14.333A11.516,11.516,0,0,1,16.058,3.24a3.362,3.362,0,0,1,6.72,0Z" transform="translate(0)" fill="#cecece"/>
    <path id="XMLID_644_" d="M23.1,26.26a6.7,6.7,0,0,1-12.96,0Z" transform="translate(2.798 8.753)" fill="#cecece"/>
  </g>
</svg>
