<svg id="Cash-01" xmlns="http://www.w3.org/2000/svg" width="30" height="33" viewBox="0 0 30 33">
  <path id="Path_16" data-name="Path 16" d="M21.064.416c-1.627-.619-2.078-.825-2.874,1.5a.934.934,0,0,0-.052.363c0,.136.084.194.188.177a1.09,1.09,0,0,1,.58.062,25.4,25.4,0,0,1,9.1,5.589c.911.978.755,1.258.076,1.984-4.364,4.632-7.234,8.473-8.089,15.56a26.613,26.613,0,0,0,0,4.707c0,.235-.364-2.888-.5-4.455-.635-7.314,2.1-12.6,6.6-17.325a.266.266,0,0,0,0-.355,7.281,7.281,0,0,0-.8-.825A20.786,20.786,0,0,0,13.035,2.507c-2.162-.107-2.646.062-3.165,2.624a.625.625,0,0,0,.028.38c.084.1.268.078.364.07a4.918,4.918,0,0,1,.843,0c5.348.326,7.238.594,10.539,2.409.987.545.631.792,0,1.819h0c-3.229,6.068-4.48,9.624-3.349,16.5A14.95,14.95,0,0,0,19.461,30.1a22.1,22.1,0,0,1-2.426-5.486c-1.467-5.284-.524-10.292,1.926-15.09.6-1.159.552-1.745-.639-2.042A24.167,24.167,0,0,0,4.45,7.639c-1.347.45-1.191.788-1.331,1.44a21.524,21.524,0,0,0-.4,2.331V11.5a.055.055,0,0,1,0,.025v.021h0v.062h0v.182h0v1.06q0,.06,0,.12v.776a26.876,26.876,0,0,0,5.9,19.215A.137.137,0,0,0,8.746,33a58.95,58.95,0,0,1,11.467-1.238c.284,0,.28-.029.28-.05A24.451,24.451,0,0,1,32.051,10.951a1.331,1.331,0,0,0,.576-.545C32.81,9.973,28.418,3.089,21.064.416ZM9.266,10.423a1.05,1.05,0,0,1,.366-.7.986.986,0,0,1,.741-.228,1.042,1.042,0,0,1,.647,1.287,1.012,1.012,0,0,1-1.087.916A1.045,1.045,0,0,1,9.266,10.423ZM11.772,29.4a1.018,1.018,0,0,1-1-.8,1.055,1.055,0,0,1,.537-1.18,1.018,1.018,0,0,1,1,.8,1.055,1.055,0,0,1-.537,1.18Zm1.4-9.182c-.08,2.256-1.479,3.968-3.137,4.125S6.692,23.1,6.208,20.884c-.58-2.628.719-5.363,3.01-5.565S13.282,17.514,13.17,20.216Z" transform="translate(-2.632 -0.005)" fill="#fcbb0a"/>
  <path id="Path_17" data-name="Path 17" d="M20.966,48.736a.825.825,0,0,0-.276-.136l.025.705a.532.532,0,0,0,.268-.128.293.293,0,0,0,.087-.223.26.26,0,0,0-.1-.219Z" transform="translate(-13.476 -28.554)" fill="#fcbb0a"/>
  <path id="Path_18" data-name="Path 18" d="M18.512,44.917a.334.334,0,0,0-.082.235.247.247,0,0,0,.1.206.763.763,0,0,0,.285.128l-.025-.726a.581.581,0,0,0-.28.157Z" transform="translate(-12.118 -26.298)" fill="#fcbb0a"/>
  <path id="Path_19" data-name="Path 19" d="M15.855,39.432c-1.794.165-2.812,2.231-2.359,4.231a3.054,3.054,0,0,0,3,2.627,3.081,3.081,0,0,0,2.474-3.138C19.035,41.1,17.649,39.246,15.855,39.432Zm1.46,4.763a1.456,1.456,0,0,1-.866.412l.021.573-.511.021-.021-.594a2.751,2.751,0,0,1-.722-.107,1.773,1.773,0,0,1-.561-.256l.256-.635a2.008,2.008,0,0,0,.462.227,2.231,2.231,0,0,0,.54.1l-.029-.854a3.814,3.814,0,0,1-.619-.173,1.13,1.13,0,0,1-.433-.3.845.845,0,0,1-.186-.544.981.981,0,0,1,.28-.738,1.485,1.485,0,0,1,.878-.412l-.021-.565H16.3v.557a2.289,2.289,0,0,1,1.043.272l-.231.639a2.062,2.062,0,0,0-.792-.239l.033.87a3.79,3.79,0,0,1,.61.161,1.118,1.118,0,0,1,.412.3.854.854,0,0,1,.186.54A.953.953,0,0,1,17.315,44.194Z" transform="translate(-8.953 -23.159)" fill="#fcbb0a"/>
</svg>
