<svg xmlns="http://www.w3.org/2000/svg" width="53.698" height="40" viewBox="0 0 53.698 40">
  <g id="Contact_us_icon" data-name="Contact us icon" transform="translate(-0.003 -3.821)">
    <g id="XMLID_66_" transform="translate(0.003 7.581)">
      <path id="XMLID_68_" d="M5.3,22.37l2.166-5.478a.44.44,0,0,0-.072-.483,3.34,3.34,0,0,0-.9-.913A9.018,9.018,0,0,1,8.93,12.918a9.092,9.092,0,0,1,3.2-1.522,3.433,3.433,0,0,0,.609,1.092.8.8,0,0,0,.412.2l5.836-.376a.507.507,0,0,0,.448-.233,4,4,0,0,0-2.9-5.979A14.438,14.438,0,0,0,.051,18.109a4.069,4.069,0,0,0,3.383,4.636C3.936,22.835,5.064,22.853,5.3,22.37Z" transform="translate(-0.003 -5.922)" fill="#d2d2d0"/>
    </g>
    <path id="XMLID_59_" d="M34.093,26.795V11.06L24.82,17.236Z" transform="translate(19.608 5.719)" fill="#d2d2d0"/>
    <path id="XMLID_58_" d="M38.287,25.13a1.75,1.75,0,0,1-.7.215H18.13A13.765,13.765,0,0,0,19.9,18.632a12.111,12.111,0,0,0-.125-1.808,6.123,6.123,0,0,0,6.641-.269L28.6,15.07Z" transform="translate(14.322 8.888)" fill="#d2d2d0"/>
    <g id="XMLID_53_" transform="translate(21.461 3.821)">
      <path id="XMLID_57_" d="M21.515,8.93a1.172,1.172,0,0,0-.9.358,1.391,1.391,0,0,0-.34,1,1.436,1.436,0,0,0,.34,1.02,1.149,1.149,0,0,0,.9.376,1.2,1.2,0,0,0,.9-.358,1.445,1.445,0,0,0,.358-1.02,1.37,1.37,0,0,0-.358-1A1.124,1.124,0,0,0,21.515,8.93Z" transform="translate(-5.44 0.216)" fill="#d2d2d0"/>
      <path id="XMLID_54_" d="M30.177,4.607a4.334,4.334,0,0,0-4.976,0L11.99,13.987A13.559,13.559,0,0,1,24.037,23.17l1.164.77a4.324,4.324,0,0,0,5.084-.107L44.23,14.578Zm1.754,11.94a1.814,1.814,0,0,1-1.074.322A1.611,1.611,0,0,1,30,16.654a1.252,1.252,0,0,1-.519-.644,1.888,1.888,0,0,1-1.718.877,2.147,2.147,0,0,1-1.164-.322,2.383,2.383,0,0,1-.841-.9,3,3,0,0,1,0-2.631,2.383,2.383,0,0,1,.841-.9,2.191,2.191,0,0,1,1.164-.322,2.128,2.128,0,0,1,1.557.662v-.609H30.7v3.24c0,.43.143.644.465.644.233,0,.394-.143.519-.43a3.243,3.243,0,0,0,.2-1.271,3.463,3.463,0,0,0-.465-1.79,3.18,3.18,0,0,0-1.307-1.217,4.286,4.286,0,0,0-1.951-.43,4.082,4.082,0,0,0-1.951.465A3.129,3.129,0,0,0,24.9,12.376a3.78,3.78,0,0,0-.465,1.862,3.869,3.869,0,0,0,.465,1.9A3.129,3.129,0,0,0,26.2,17.424a3.96,3.96,0,0,0,1.933.465,4.248,4.248,0,0,0,1.969-.448l.322.931a4.2,4.2,0,0,1-1.074.358,5.786,5.786,0,0,1-1.235.125,5.255,5.255,0,0,1-2.524-.591,4.3,4.3,0,0,1-1.7-1.647,4.736,4.736,0,0,1-.609-2.363,4.493,4.493,0,0,1,.609-2.345,4.194,4.194,0,0,1,1.718-1.629,5.689,5.689,0,0,1,5.012-.018,4.387,4.387,0,0,1,2.041,5.317A2.4,2.4,0,0,1,31.932,16.547Z" transform="translate(-11.99 -3.821)" fill="#d2d2d0"/>
    </g>
    <path id="Path_310" data-name="Path 310" d="M16.536,10.15A13.079,13.079,0,0,0,3.45,23.182,13.716,13.716,0,0,0,7.6,32.544c.09,1.933.143,2.793-2.166,4.941-1.074,1-.841,1.217.591,1.325,2.363.179,5.281-1.862,7.035-3.043a12.39,12.39,0,0,0,3.455.483,13.05,13.05,0,1,0,.018-26.1Zm-5.46,18.1a1.8,1.8,0,1,1,1.808-1.79A1.8,1.8,0,0,1,11.076,28.248Zm5.388,0a1.8,1.8,0,1,1,1.808-1.79A1.8,1.8,0,0,1,16.464,28.248Zm5.406.018a1.8,1.8,0,1,1,1.808-1.79A1.823,1.823,0,0,1,21.87,28.266Z" transform="translate(2.724 5)" fill="#d2d2d0"/>
  </g>
</svg>
