<svg xmlns="http://www.w3.org/2000/svg" width="30" height="28.54" viewBox="0 0 30 28.54">
  <g id="Goal-01" transform="translate(0.017 -0.768)">
    <circle id="Ellipse_17" data-name="Ellipse 17" cx="2.537" cy="2.537" r="2.537" transform="translate(3.417 7.608)" fill="#9f6d3f"/>
    <path id="Path_29" data-name="Path 29" d="M1.215,33.294a1.128,1.128,0,0,0,.958-.526l.68-.988a5.427,5.427,0,0,1,2.225-1.857v4.052l-.492,3.383L2.749,41.9,5.6,41.484l.248-.248,1.237-2.95c.03-.094.064-.218.094-.308l.432-2.785,2.751,1.128-.278,2.845,2.68-.241.342-3.311a1.334,1.334,0,0,0-.8-1.361l-2.255-.928V29.153l.124-.034a7.893,7.893,0,0,0,4.1-2.6l1.022-1.267A1.169,1.169,0,0,0,13.467,23.8l-1.075,1.237a5.3,5.3,0,0,1-2.845,1.827l-.308.06a4.728,4.728,0,0,1-1.33.154H7.277a8.3,8.3,0,0,0-2.289.342A7.78,7.78,0,0,0,.854,30.449l-.661.992a1.128,1.128,0,0,0,.312,1.6,1.086,1.086,0,0,0,.71.248Z" transform="translate(0 -15.074)" fill="#9f6d3f"/>
    <path id="Path_28" data-name="Path 28" d="M33.123,28.074l-1.652-7.483a1.063,1.063,0,0,0-.375-.568l-2.435-1.764a.847.847,0,0,1-.375-.629l-.584-3.5a.989.989,0,0,0-.375-.6l-3-2.245a.03.03,0,0,1-.03-.029V1.067a.337.337,0,0,0-.341-.3h-.442a.324.324,0,0,0-.236.079.306.306,0,0,0-.105.22v.877a5.346,5.346,0,0,1-2.218-.24,5.332,5.332,0,0,0-3.2-.087.278.278,0,0,0-.217.269V5.716a.271.271,0,0,0,.126.211.288.288,0,0,0,.249.029,4.95,4.95,0,0,1,2.9.087,7.065,7.065,0,0,0,1.847.3c.154,0,.341-.033.495-.033v4.911L18.46,13.5a.9.9,0,0,0-.524.658l-.524,2.157a1,1,0,0,0-.03.3l.247,2.794a.9.9,0,0,1-.24.728l-2.75,3.092a1.026,1.026,0,0,1-.678.331l-2.712.24a.371.371,0,0,0-.341.3L10.645,25.8a.451.451,0,0,1-.375.364l-4.6.593a.458.458,0,0,0-.375.364l-.247,1.706a.417.417,0,0,0,.1.334.444.444,0,0,0,.327.146H32.149a1.092,1.092,0,0,0,.767-.408,1.028,1.028,0,0,0,.207-.825Z" transform="translate(-3.156)" fill="#9f6d3f"/>
  </g>
</svg>
