<svg xmlns="http://www.w3.org/2000/svg" xmlns:xlink="http://www.w3.org/1999/xlink" width="39" height="40" viewBox="0 0 39 40">
  <defs>
    <filter id="Help-01" x="0" y="0" width="39" height="40" filterUnits="userSpaceOnUse">
      <feOffset dy="3" input="SourceAlpha"/>
      <feGaussianBlur stdDeviation="1.5" result="blur"/>
      <feFlood flood-opacity="0.302"/>
      <feComposite operator="in" in2="blur"/>
      <feComposite in="SourceGraphic"/>
    </filter>
  </defs>
  <g id="icon" transform="translate(-45.5 -1023.5)">
    <g transform="matrix(1, 0, 0, 1, 45.5, 1023.5)" filter="url(#Help-01)">
      <path id="Help-01-2" data-name="Help-01" d="M15,0A15.256,15.256,0,0,0,0,15.5,15.256,15.256,0,0,0,15,31,15.256,15.256,0,0,0,30,15.5,15.256,15.256,0,0,0,15,0Zm.851,22.862a1.171,1.171,0,0,1-1.515.153A1.263,1.263,0,0,1,13.9,21.51a1.192,1.192,0,0,1,1.342-.742,1.23,1.23,0,0,1,.967,1.215,1.261,1.261,0,0,1-.352.88Zm.461-5.7h0s-.086.066-.086.139v.973a1.251,1.251,0,0,1-2.5,0V17.3a2.808,2.808,0,0,1,1.781-2.461A1.766,1.766,0,0,0,14.97,11.4a1.685,1.685,0,0,0-1.5,1,1.2,1.2,0,0,1-.7.608,1.158,1.158,0,0,1-.91-.081,1.279,1.279,0,0,1-.544-1.624,4.085,4.085,0,0,1,3.664-2.418H15a4.171,4.171,0,0,1,3.979,3.572A4.281,4.281,0,0,1,16.312,17.159Z" transform="translate(4.5 1.5)" fill="#cecece"/>
    </g>
  </g>
</svg>
