<svg xmlns="http://www.w3.org/2000/svg" width="30.001" height="30.431" viewBox="0 0 30.001 30.431">
  <path id="Insurence-01" d="M30.548,16.612a15.855,15.855,0,0,0-3.944-9.1,14.6,14.6,0,0,0-9.911-4.963V1.787C16.629.692,16.545,0,15.359,0A1.084,1.084,0,0,0,14.29,1.05V2.6A14.273,14.273,0,0,0,7.373,5.085a15.307,15.307,0,0,0-5.02,5.625,16.079,16.079,0,0,0-1.8,5.849.662.662,0,0,0,1,.662,6.937,6.937,0,0,1,3.906-1.16,6.815,6.815,0,0,1,4.541,1.765.612.612,0,0,0,.837,0,6.845,6.845,0,0,1,3.32-1.654v7.325h0v3.833a.875.875,0,0,1-.335.685.917.917,0,0,1-.974,0,1.072,1.072,0,0,1-.346-.738V25.533a1.141,1.141,0,0,0-.726-1,1.339,1.339,0,0,0-1.259.156,1.012,1.012,0,0,0-.475.848c0,.738-.049,1.422,0,2.164a2.521,2.521,0,0,0,.593,1.586,2.879,2.879,0,0,0,1.635,1.057,3.921,3.921,0,0,0,1.373.053,3.012,3.012,0,0,0,1.32-.422,2.913,2.913,0,0,0,.962-.848,3.213,3.213,0,0,0,.559-1.217c0-.1.084-.209.084-.316V24h0v-7.72c0-.053.049-.053.1-.053a6.112,6.112,0,0,1,2.111.761,5.526,5.526,0,0,1,1.263.936.692.692,0,0,0,.9,0,6.845,6.845,0,0,1,4.594-1.818A6.613,6.613,0,0,1,29.5,17.319a.723.723,0,0,0,1.046-.707Z" transform="translate(-0.55)" fill="#0a82d5"/>
</svg>
