<svg xmlns="http://www.w3.org/2000/svg" width="30" height="29.87" viewBox="0 0 30 29.87">
  <g id="Invest-01" transform="translate(0.015 -0.243)">
    <path id="Path_20" data-name="Path 20" d="M17.168,15.091l8.049-8.317L26.541,8.04a1.022,1.022,0,0,0,1.125.222,1.07,1.07,0,0,0,.694-.887l.675-5.946a1.027,1.027,0,0,0-.315-.9,1.041,1.041,0,0,0-.885-.27l-5.965.917a1.065,1.065,0,0,0-.851.729A.974.974,0,0,0,21.3,2.976l1.323,1.266L15.811,11.3,11.927,7.5a1.809,1.809,0,0,0-1.17-.507,1.872,1.872,0,0,0-1.421.541L.47,16.7a1.907,1.907,0,0,0,.06,2.607,1.84,1.84,0,0,0,.664.409,3.492,3.492,0,0,0,.349.094c.094,0,.187.034.285.034a1.768,1.768,0,0,0,1.26-.537L10.7,11.421l3.88,3.756a1.838,1.838,0,0,0,2.591-.086Z" transform="translate(0 0)" fill="#05b838"/>
    <path id="Path_21" data-name="Path 21" d="M11.348,61.74H6a1,1,0,0,0-1,1.014V67.5a1,1,0,0,0,1.01,1.01h5.338a1,1,0,0,0,1.014-1.01V62.754A1.022,1.022,0,0,0,11.348,61.74Z" transform="translate(-3.131 -38.396)" fill="#05b838"/>
    <path id="Path_22" data-name="Path 22" d="M39.036,50.46H33.694a1,1,0,0,0-1.014,1.014v8.982a1,1,0,0,0,1.014,1.01h5.342a1,1,0,0,0,1.014-1.01V51.44a1,1,0,0,0-1.014-.98Z" transform="translate(-20.444 -31.353)" fill="#05b838"/>
    <path id="Path_23" data-name="Path 23" d="M66.74,39.1H61.394a1,1,0,0,0-1.014,1.01V53.363a1,1,0,0,0,1.014,1.01H66.74a1,1,0,0,0,1.01-1.01V40.11a1,1,0,0,0-1.01-1.01Z" transform="translate(-37.765 -24.261)" fill="#05b838"/>
  </g>
</svg>
