<svg xmlns="http://www.w3.org/2000/svg" width="30" height="29.967" viewBox="0 0 30 29.967">
  <g id="Legalplanning-01" transform="translate(-0.224 -0.172)">
    <path id="Path_26" data-name="Path 26" d="M20.807,65.058V63.925a2.3,2.3,0,0,0-2.3-2.3H4.167a2.3,2.3,0,0,0-2.3,2.3v1.132a1.725,1.725,0,0,0,0,3.446H20.807a1.725,1.725,0,0,0,0-3.446Z" transform="translate(0 -38.366)" fill="#e86501"/>
    <path id="Path_27" data-name="Path 27" d="M35.039,24.171,23.311,12.428l2.5-2.5a1.647,1.647,0,0,0,.752.184,1.718,1.718,0,0,0,1.214-2.929L21.292.7a1.718,1.718,0,0,0-2.764,1.981l-2.5,2.5L14.818,3.935a1.669,1.669,0,0,0-1.2-.5A1.718,1.718,0,0,0,12.393,6.36l1.214,1.214-2.47,2.5a1.775,1.775,0,0,0-1.951.331,1.718,1.718,0,0,0,0,2.429h0L15.63,19.3a1.715,1.715,0,0,0,2.756-1.951l2.5-2.5L32.613,26.581a1.714,1.714,0,0,0,2.425,0A1.835,1.835,0,0,0,35.039,24.171Z" transform="translate(-5.266 0)" fill="#e86501"/>
  </g>
</svg>
