<?xml version="1.0" encoding="utf-8"?>
<!-- Generator: Adobe Illustrator 25.0.0, SVG Export Plug-In . SVG Version: 6.00 Build 0)  -->
<svg version="1.1" id="Layer_1" xmlns="http://www.w3.org/2000/svg" xmlns:xlink="http://www.w3.org/1999/xlink" x="0px" y="0px"
	 viewBox="0 0 20 40" style="enable-background:new 0 0 20 40;" xml:space="preserve">
<path d="M19.17,21.87c0.47-0.47,0.74-1.15,0.68-2.16c-0.05-0.75-0.31-1.23-0.66-1.58c-2.06-2.09-4.12-4.17-6.19-6.26
	C9.25,8.07,5.51,4.28,1.76,0.47c-0.4-0.4-0.8-0.68-1.25-0.28C0.15,0.5-0.07,1.03-0.12,1.75c-0.02,0.23-0.02,0.46-0.02,0.71
	c0,11.64,0.01,23.26-0.01,34.9c0,1.27,0.19,2.21,0.89,2.64c0.13,0,0.26,0,0.39,0c0.32-0.17,0.6-0.47,0.88-0.77
	C7.74,33.44,13.45,27.65,19.17,21.87z"/>
</svg>
