<svg id="Profile_icon" data-name="Profile icon" xmlns="http://www.w3.org/2000/svg" width="60" height="58.418" viewBox="0 0 60 58.418">
  <path id="Path_46" data-name="Path 46" d="M8.4,48.369a19.851,19.851,0,0,1-8.4-1.5q4.7-2.535,9.331-5.234A8.7,8.7,0,0,0,13.293,46a21.606,21.606,0,0,0,7.028,1.5A11.873,11.873,0,0,0,27.11,51.98c-2.011,1.136-4.052,2.243-6.086,3.327-.269-1.824-.6-3.791-1.907-5.181a6.153,6.153,0,0,0-4-1.764A67.186,67.186,0,0,0,8.4,48.369Z" transform="translate(0 -11.173)" fill="#98c978"/>
  <path id="Path_47" data-name="Path 47" d="M40.575,12.975a21.111,21.111,0,0,0-4.8,5.338,11.85,11.85,0,0,0-7.3,3.634c0-2.31.1-4.621.164-6.938,1.727.7,3.581,1.406,5.465.957a6.1,6.1,0,0,0,3.521-2.587,62.4,62.4,0,0,0,3.357-5.817A19.669,19.669,0,0,1,46.5,1.05c-.1,3.559-.157,7.125-.142,10.692a8.628,8.628,0,0,0-5.779,1.234Z" transform="translate(-7.093 -1.05)" fill="#6d4db4"/>
  <path id="Path_48" data-name="Path 48" d="M33.478,10.488A4.538,4.538,0,1,1,35.721,1.7,4.6,4.6,0,0,1,38.854,6.7a4.568,4.568,0,0,1-5.376,3.791Z" transform="translate(-7.455 -1.165)" fill="#6d4db4"/>
  <path id="Path_49" data-name="Path 49" d="M43.74,23.407c2.011-1.136,4.052-2.243,6.086-3.327.269,1.824.6,3.791,1.907,5.181a6.153,6.153,0,0,0,4,1.764,63.129,63.129,0,0,0,6.729,0,19.851,19.851,0,0,1,8.4,1.5q-4.7,2.535-9.331,5.234A8.7,8.7,0,0,0,57.564,29.4a21.606,21.606,0,0,0-7.028-1.5,11.873,11.873,0,0,0-6.8-4.493Z" transform="translate(-10.858 -5.796)" fill="#d1371f"/>
  <path id="Path_50" data-name="Path 50" d="M66.194,22.987a4.583,4.583,0,0,1-5.981-2.766,4.552,4.552,0,1,1,8.77-2.445,4.6,4.6,0,0,1-2.789,5.211Z" transform="translate(-14.972 -4.395)" fill="#d1371f"/>
  <path id="Path_51" data-name="Path 51" d="M54.58,43.645A11.873,11.873,0,0,0,55.1,35.51c1.989,1.174,3.955,2.385,5.921,3.6-1.443,1.144-2.991,2.415-3.536,4.239a6.153,6.153,0,0,0,.479,4.351,64.273,64.273,0,0,0,3.357,5.809A19.532,19.532,0,0,1,64.2,61.551c-3.035-1.862-6.093-3.738-9.189-5.465a8.71,8.71,0,0,0,1.794-5.615A21.1,21.1,0,0,0,54.58,43.645Z" transform="translate(-13.627 -9.571)" fill="#d98b11"/>
  <path id="Path_52" data-name="Path 52" d="M65.2,48.125a4.538,4.538,0,1,1,.249,6.229,4.538,4.538,0,0,1-.249-6.229Z" transform="translate(-15.991 -12.415)" fill="#d98b11"/>
  <path id="Path_53" data-name="Path 53" d="M33.341,59.972a21.112,21.112,0,0,0,4.8-5.338A11.85,11.85,0,0,0,45.446,51c0,2.31-.1,4.621-.164,6.938-1.727-.7-3.581-1.406-5.465-.957a6.1,6.1,0,0,0-3.521,2.587,62.4,62.4,0,0,0-3.357,5.817A19.669,19.669,0,0,1,27.42,71.9c.1-3.559.157-7.125.142-10.692A8.628,8.628,0,0,0,33.341,59.972Z" transform="translate(-6.831 -13.479)" fill="#e9d031"/>
  <path id="Path_54" data-name="Path 54" d="M43.458,66.448a4.538,4.538,0,1,1-5.315,3.322A4.538,4.538,0,0,1,43.458,66.448Z" transform="translate(-9.489 -17.354)" fill="#e9d031"/>
  <path id="Path_55" data-name="Path 55" d="M10.756,54.026a4.419,4.419,0,1,1-2.789,5.211,4.583,4.583,0,0,1,2.789-5.211Z" transform="translate(-1.986 -14.201)" fill="#98c978"/>
  <path id="Path_56" data-name="Path 56" d="M22.172,27.566a11.873,11.873,0,0,0-.516,8.135c-1.989-1.174-3.955-2.385-5.921-3.6,1.443-1.144,2.991-2.415,3.536-4.239a6.153,6.153,0,0,0-.479-4.351A64.274,64.274,0,0,0,15.436,17.7,19.532,19.532,0,0,1,12.55,9.66c3.035,1.862,6.093,3.7,9.189,5.465a8.71,8.71,0,0,0-1.794,5.615A21.1,21.1,0,0,0,22.172,27.566Z" transform="translate(-3.133 -3.223)" fill="#53a4d6"/>
  <path id="Path_57" data-name="Path 57" d="M11.734,28.811a4.538,4.538,0,1,1-.249-6.229,4.538,4.538,0,0,1,.249,6.229Z" transform="translate(-0.953 -6.104)" fill="#53a4d6"/>
  <path id="Path_58" data-name="Path 58" d="M37.981,25.92h0A5.944,5.944,0,1,1,32,31.9a5.944,5.944,0,0,1,5.981-5.981Z" transform="translate(-7.985 -7.255)" fill="#cecece"/>
  <path id="Path_59" data-name="Path 59" d="M42.182,49.2a10.529,10.529,0,0,1-14.662-4.2,10.52,10.52,0,0,1,4.164-4.426.419.419,0,0,1,.591.06,6.8,6.8,0,0,0,9.166,0,.419.419,0,0,1,.591-.06,10.542,10.542,0,0,1,4.157,4.411A10.557,10.557,0,0,1,42.182,49.2Z" transform="translate(-6.855 -10.891)" fill="#cecece"/>
</svg>
