<svg xmlns="http://www.w3.org/2000/svg" width="30" height="26.058" viewBox="0 0 30 26.058">
  <g id="Realstate-01" transform="translate(-0.005 -5.237)">
    <path id="Path_24" data-name="Path 24" d="M29.987,17.09a2.333,2.333,0,0,0-.881-1.57h0l-2.624-2.167V8.494a.619.619,0,0,0-.618-.62l-3.429-.6a.615.615,0,0,0-.618.616V9.8l-4.981-3.92a2.968,2.968,0,0,0-3.681,0L.9,15.52A2.352,2.352,0,0,0,2.072,19.7a2.42,2.42,0,0,0,.285.019,2.31,2.31,0,0,0,1.443-.5l10.12-7.957a1.744,1.744,0,0,1,2.166,0l10.12,7.957a2.346,2.346,0,0,0,3.782-2.129" transform="translate(0)" fill="#bf1010"/>
    <path id="Path_25" data-name="Path 25" d="M32.681,31.929l-9.19-7.187a1.869,1.869,0,0,0-2.285,0l-9.19,7.187a.613.613,0,0,0-.236.484v8.2a2.663,2.663,0,0,0,2.659,2.666h4.809a.611.611,0,0,0,.614-.616V36.924a2.487,2.487,0,1,1,4.973,0v5.742a.611.611,0,0,0,.614.616h4.809a2.663,2.663,0,0,0,2.659-2.666v-8.2a.613.613,0,0,0-.236-.484" transform="translate(-7.354 -11.986)" fill="#bf1010"/>
  </g>
</svg>
