<svg xmlns="http://www.w3.org/2000/svg" width="60" height="58.206" viewBox="0 0 60 58.206">
  <g id="Star" transform="translate(-32.056 -1.47)">
    <path id="Path_2007" data-name="Path 2007" d="M37.514,25.344l3.272-2.484v6.288l-18,13.679q3.173-9.855,6.327-19.455L30,20.614l5.913-1.794-3.41,10.329,3.765-2.838h0l1.261-.966Z" transform="translate(20.127 16.848)" fill="#8cc53f"/>
    <path id="Path_2008" data-name="Path 2008" d="M50.52,41.9,32.78,29.01V22.88l8.673,6.307-1.124-3.666L38.358,18.78l5.736,1.715Z" transform="translate(29.828 16.809)" fill="#8cc53f"/>
    <path id="Path_2009" data-name="Path 2009" d="M34.48,17.057l3.686-4.987H60.577q-8.87,6.652-17.74,13.325L37.18,23.759c2.878-2.227,5.8-4.435,8.693-6.643H34.48Z" transform="translate(31.479 10.294)" fill="#8cc53f"/>
    <path id="Path_2010" data-name="Path 2010" d="M34.882,25.552,17.28,12.07H38.962l3.607,4.908H32l4.041,3.095h0l1.281.966h0l3.449,2.72Z" transform="translate(14.776 10.294)" fill="#8cc53f"/>
    <path id="Path_2011" data-name="Path 2011" d="M29,21.457l.177-.532h0Q32.43,11.207,35.643,1.47q3.272,9.855,6.485,19.849h0L38.54,26.168c-.966-2.957-1.971-5.913-2.917-8.85L34.44,20.885,33.928,22.4h0l-.394,1.222-.887,2.681Z" transform="translate(26.157)" fill="#8cc53f"/>
  </g>
</svg>
