<svg xmlns="http://www.w3.org/2000/svg" width="30" height="39.369" viewBox="0 0 30 39.369">
  <path id="Tax-01" d="M28.572,9.439c1.333-2.854,2.835-6.25,2.835-7.618,0-1.654-2.058-2.564-3.3-.787C26.476,3.351,25.79,0,23.9,0s-2.825,3.145-4.278,1.033a1.906,1.906,0,0,0-3.559.787c0,1.821,1.439,5.093,2.753,7.741C14.294,13.2,8.74,19.995,8.74,26.166c-.014,8.981,6.719,13.2,14.993,13.2s15.007-4.222,15.007-13.2C38.74,19.955,33.133,13.08,28.572,9.439Zm-9.113,8.612A2.319,2.319,0,1,1,17.2,20.369a2.344,2.344,0,0,1,.659-1.639,2.226,2.226,0,0,1,1.6-.679Zm.6,12.377a1.374,1.374,0,0,1-.926.413,1.2,1.2,0,0,1-.926-.413,1.343,1.343,0,0,1,0-1.9l9.233-9.478a1.263,1.263,0,0,1,1.856,0,1.389,1.389,0,0,1,0,1.9Zm7.952,1.033a2.319,2.319,0,1,1,2.259-2.318,2.344,2.344,0,0,1-.662,1.642,2.225,2.225,0,0,1-1.6.676Z" transform="translate(-8.74)" fill="#8c57ff"/>
</svg>
