<svg xmlns="http://www.w3.org/2000/svg" width="40" height="34.253" viewBox="0 0 40 34.253">
  <g id="vault-01" transform="translate(0 -2.16)">
    <path id="Path_307" data-name="Path 307" d="M36.923,5.413H14.937c-.227-.08-.693-.827-.947-1.24-.613-.987-1.267-2.013-2.347-2.013H4.31A2.441,2.441,0,0,0,1.87,4.6V9.493H39.377V7.867A2.455,2.455,0,0,0,36.923,5.413Z" transform="translate(0.623)" fill="#cecece"/>
    <path id="Path_308" data-name="Path 308" d="M40,9.7V18.97a2.787,2.787,0,0,0-.933-.267c0-.227-.013-.467-.013-.707L39.04,17.7a8.021,8.021,0,0,0-.16-1.72A8.162,8.162,0,0,0,30.893,9.65a8.772,8.772,0,0,0-1.76.187,7.73,7.73,0,0,0-6.467,8.053c.013.267.013.547.013.827a2.81,2.81,0,0,0-2.547,3.013L20.12,30.8s-.013,1.213,0,1.627a3.162,3.162,0,0,0,.84,1.747H4.933a2.441,2.441,0,0,1-2.44-2.44L0,9.7A.808.808,0,0,1,.813,8.89h38.36A.8.8,0,0,1,40,9.7Z" transform="translate(0 2.243)" fill="#cecece"/>
    <path id="Path_309" data-name="Path 309" d="M34.543,20.925a1.176,1.176,0,0,0-1.2-1.187,9.491,9.491,0,0,0-1.067.013c-.227.013-.333-.067-.333-.307.013-.667.027-1.32,0-1.987a7.923,7.923,0,0,0-.133-1.693,6.522,6.522,0,0,0-7.773-4.907,6.1,6.1,0,0,0-5.16,6.373c.027.667.013,1.32.013,1.987-.013.587.053.52-.547.52H17.73a1.229,1.229,0,0,0-1.387,1.387c-.013,2-.013,3.987-.013,5.987V30.9h.027A2.474,2.474,0,0,0,18.81,33.2H32.063a2.484,2.484,0,0,0,2.48-2.48V27.111C34.557,25.058,34.557,22.991,34.543,20.925Zm-8.48,8.893v1a.393.393,0,0,1-.4.4h-.44a.4.4,0,0,1-.4-.4V29.8A1.454,1.454,0,1,1,26.917,28.5,1.5,1.5,0,0,1,26.063,29.818Zm3.107-10.36c0,.16-.027.28-.24.28-2.373,0-4.733,0-7.093-.013a.676.676,0,0,1-.12-.027,3.269,3.269,0,0,1-.027-.36c-.013-.76-.013-1.507,0-2.267a3.267,3.267,0,0,1,2.373-3.307,3.745,3.745,0,0,1,5.053,2.853,8.866,8.866,0,0,1,.04,1.573C29.17,18.6,29.17,19.031,29.17,19.458Z" transform="translate(5.443 2.849)" fill="#cecece"/>
  </g>
</svg>
